<?xml version="1.0" encoding="UTF-8" standalone="no"?>
<!-- Created with Inkscape (http://www.inkscape.org/) -->

<svg
   xmlns:dc="http://purl.org/dc/elements/1.1/"
   xmlns:cc="http://creativecommons.org/ns#"
   xmlns:rdf="http://www.w3.org/1999/02/22-rdf-syntax-ns#"
   xmlns:svg="http://www.w3.org/2000/svg"
   xmlns="http://www.w3.org/2000/svg"
   xmlns:sodipodi="http://sodipodi.sourceforge.net/DTD/sodipodi-0.dtd"
   xmlns:inkscape="http://www.inkscape.org/namespaces/inkscape"
   width="139.79198mm"
   height="74.428261mm"
   viewBox="0 0 495.3259 263.72218"
   id="svg4244"
   version="1.1"
   inkscape:version="0.91 r13725"
   sodipodi:docname="o2r-logo-only-white.svg">
  <defs
     id="defs4246" />
  <sodipodi:namedview
     id="base"
     pagecolor="#ffffff"
     bordercolor="#666666"
     borderopacity="1.0"
     inkscape:pageopacity="0.0"
     inkscape:pageshadow="2"
     inkscape:zoom="0.7"
     inkscape:cx="-5.9418671"
     inkscape:cy="16.128153"
     inkscape:document-units="px"
     inkscape:current-layer="layer1"
     showgrid="false"
     inkscape:window-width="1920"
     inkscape:window-height="1182"
     inkscape:window-x="1600"
     inkscape:window-y="18"
     inkscape:window-maximized="1"
     fit-margin-top="0"
     fit-margin-left="0"
     fit-margin-right="0"
     fit-margin-bottom="0" />
  <metadata
     id="metadata4249">
    <rdf:RDF>
      <cc:Work
         rdf:about="">
        <dc:format>image/svg+xml</dc:format>
        <dc:type
           rdf:resource="http://purl.org/dc/dcmitype/StillImage" />
        <dc:title />
      </cc:Work>
    </rdf:RDF>
  </metadata>
  <g
     inkscape:label="Layer 1"
     inkscape:groupmode="layer"
     id="layer1"
     transform="translate(-120.90847,-320.50112)">
    <path
       style="font-style:normal;font-variant:normal;font-weight:normal;font-stretch:normal;font-size:99.0154953px;line-height:125%;font-family:DIN-Black;-inkscape-font-specification:DIN-Black;letter-spacing:0px;word-spacing:0px;fill:#ffffff;fill-opacity:1;stroke:none;stroke-width:1px;stroke-linecap:butt;stroke-linejoin:miter;stroke-opacity:1"
       d="m 198.74245,415.9614 18.93555,17.043 -15.69922,15.1934 c 4.21027,1.3107 7.73403,3.7807 10.56445,7.4199 5.68768,7.3729 8.53126,21.8021 8.53126,43.289 0,19.1697 -2.00143,33.0741 -6.00392,41.711 -3.24022,6.9924 -8.27712,11.1531 -15.10742,12.4844 l -14.45312,13.9863 18.47851,16.6308 c 8.12922,-0.8214 15.19734,-2.6518 21.19336,-5.5 8.42643,-4.0024 15.69382,-9.48 21.80275,-16.4316 6.95162,-8.0049 12.00798,-16.9566 15.16797,-26.8574 3.3704,-9.9009 5.05664,-21.8037 5.05664,-35.707 0,-13.2714 -1.47468,-24.5417 -4.42383,-33.8106 -2.94915,-9.2689 -7.69032,-17.6937 -14.2207,-25.2773 -12.64922,-14.9845 -29.26295,-23.032 -49.82228,-24.1739 z m -11.79492,0.1172 c -8.38825,0.6545 -16.18996,2.5503 -23.38281,5.7285 -8.84745,4.0025 -16.43024,9.7953 -22.75,17.3789 -6.31976,7.373 -11.27054,16.3266 -14.85156,26.8594 -3.37061,10.3221 -5.05469,21.8021 -5.05469,34.4414 0,12.6394 1.68408,24.1212 5.05469,34.4434 3.58102,10.3221 8.5318,19.17 14.85156,26.543 6.31976,7.1623 13.90255,12.7436 22.75,16.746 8.78282,3.8808 18.46608,5.8625 29.03124,5.9805 l -18.77734,-16.9004 14.94727,-14.4648 c -2.18582,-0.526 -4.37063,-1.3289 -6.55664,-2.4219 -4.00248,-2.3172 -6.95184,-5.6875 -8.84766,-10.1113 -3.58123,-8.8476 -5.37305,-22.4347 -5.37305,-40.7617 0,-8.005 0.31714,-14.9571 0.94922,-20.8555 0.84249,-5.8984 1.99982,-10.9529 3.47461,-15.166 1.6852,-5.0558 4.42494,-9.0587 8.2168,-12.0078 3.26544,-2.4062 6.8871,-3.8148 10.85351,-4.2578 l 14.50586,-14.0372 -19.04101,-17.1367 z"
       id="path3504-5-8"
       inkscape:export-xdpi="90"
       inkscape:export-ydpi="90"
       inkscape:connector-curvature="0" />
    <path
       style="color:#000000;font-style:normal;font-variant:normal;font-weight:normal;font-stretch:normal;font-size:99.0154953px;line-height:125%;font-family:DIN-Black;-inkscape-font-specification:DIN-Black;text-indent:0;text-align:start;text-decoration:none;text-decoration-line:none;text-decoration-style:solid;text-decoration-color:#000000;letter-spacing:0px;word-spacing:0px;text-transform:none;direction:ltr;block-progression:tb;writing-mode:lr-tb;baseline-shift:baseline;text-anchor:start;white-space:normal;clip-rule:nonzero;display:inline;overflow:visible;visibility:visible;opacity:1;isolation:auto;mix-blend-mode:normal;color-interpolation:sRGB;color-interpolation-filters:linearRGB;solid-color:#000000;solid-opacity:1;fill:#ffffff;fill-opacity:1;fill-rule:nonzero;stroke:none;stroke-width:3.19099998;stroke-linecap:butt;stroke-linejoin:miter;stroke-miterlimit:4;stroke-dasharray:none;stroke-dashoffset:0;stroke-opacity:1;color-rendering:auto;image-rendering:auto;shape-rendering:auto;text-rendering:auto;enable-background:accumulate"
       d="m 368.7034,365.231 c -16.59952,0 -31.3529,2.7665 -44.21875,8.3379 -12.81741,5.3404 -24.97698,13.1326 -36.46875,23.3476 l -1.16407,1.0332 24.78125,29.2559 1.21485,-1.0137 c 8.77569,-7.3131 16.57952,-12.5004 23.33789,-15.5723 l 0.01,0 0.01,0 c 6.98764,-3.2883 13.70078,-4.9043 20.17578,-4.9043 6.84929,0 12.53343,1.9733 17.30469,5.9493 l 0.0273,0.023 0.0293,0.021 c 4.7187,3.5863 7.26952,10.3668 7.26953,20.8496 0,3.644 -0.50738,7.5151 -1.5332,11.6191 l -0.008,0.037 -0.008,0.037 c -0.80238,4.0125 -2.53337,8.6256 -5.22265,13.7969 l -0.0117,0.021 -0.0117,0.023 c -2.47841,5.1635 -5.91067,10.8882 -10.29688,17.1543 -4.37527,6.2504 -10.02446,13.2635 -16.94531,21.0234 l -0.0293,0.033 -0.0273,0.033 c -1.64074,2.0509 -3.60176,4.2209 -5.88477,6.5039 -2.12534,2.1254 -4.35285,4.4593 -6.68359,7.002 l -14.49414,14.8066 -14.19141,14.1914 -3.88476,3.5918 -8.4961,-10.0351 0.53321,49.9511 1.57812,0 3.02344,0 36.45313,0 -11.61133,-13.7578 55.89258,-52.8906 2.89648,-2.7402 0.0488,0.051 c 4.66302,-4.7431 8.80902,-9.0841 12.42773,-13.0176 l 0.006,-0.01 0.006,-0.01 c 11.43649,-12.7071 20.45944,-25.0151 27.0625,-36.9414 6.84616,-12.195 10.31641,-24.1649 10.31641,-35.8555 0,-9.0051 -1.50202,-17.3091 -4.51953,-24.873 l -0.002,0 c -2.81013,-7.7804 -7.04814,-14.4228 -12.69336,-19.8574 l -0.01,-0.01 c -5.43033,-5.4276 -12.05223,-9.6553 -19.81445,-12.6739 -7.79271,-3.0306 -16.52874,-4.5312 -26.17383,-4.5312 z m 8.21679,178.5312 c -2.57212,0 -5.45083,0.1059 -8.63867,0.3184 -2.58903,0 -5.17721,0.089 -7.76562,0.2304 l -26.29883,24.8868 10.12695,12 0.9668,1.1445 86.87695,0 9.99024,-38.5801 -65.25782,0 z"
       id="path3506-63-6"
       inkscape:export-xdpi="90"
       inkscape:export-ydpi="90"
       inkscape:connector-curvature="0" />
    <g
       transform="matrix(5.2122185,0,0,5.2122185,455.07433,-45.01813)"
       style="font-style:normal;font-variant:normal;font-weight:normal;font-stretch:normal;font-size:99.0154953px;line-height:125%;font-family:DIN-Black;-inkscape-font-specification:DIN-Black;letter-spacing:0px;word-spacing:0px;fill:#ffffff;fill-opacity:1;stroke:none;stroke-width:1px;stroke-linecap:butt;stroke-linejoin:miter;stroke-opacity:1"
       id="flowRoot3362-0-8-5-1-3-6-0-3-2-4"
       inkscape:export-xdpi="90"
       inkscape:export-ydpi="90">
      <path
         d="m 20.734397,80.130603 2.019211,-1.850989 c 0,0 -1.303371,-0.268539 -1.938585,0.08198 -1.811247,0.999463 -3.51101,2.382897 -4.775767,3.647653 -1.122176,1.122176 -1.881295,2.211347 -2.277357,3.267512 -0.396062,0.990155 -0.594093,2.508392 -0.594093,4.554713 l 0,30.892828 -7.7232083,0 0,-38.021944 c 0,-3.630568 -0.2970465,-6.270981 -0.8911395,-7.92124 L 3.7613343,72.206709 11.484543,70.127384 c 0.06601,0.06601 0.231032,0.462075 0.495077,1.188186 0.264041,0.660103 0.528083,1.650258 0.792124,2.970465 0.264041,1.254196 0.363057,2.541397 0.297047,3.861604 1.782279,-2.508393 4.002844,-5.381635 6.445227,-6.833862 4.746986,-3.1063 8.90301,1.501296 9.272871,1.160304 l 2.126677,-1.960682 0.0061,9.655044 z"
         style="font-style:normal;font-variant:normal;font-weight:normal;font-stretch:normal;font-family:MetaNormal-Roman;-inkscape-font-specification:MetaNormal-Roman;fill:#ffffff;fill-opacity:1;stroke:none;stroke-opacity:1"
         id="path4325-4-9"
         inkscape:connector-curvature="0"
         sodipodi:nodetypes="ccsscsccscccccccsccc" />
    </g>
  </g>
</svg>
